<?xml version="1.0" encoding="utf-8"?>
<!-- Generator: Adobe Illustrator 23.0.3, SVG Export Plug-In . SVG Version: 6.00 Build 0)  -->
<svg version="1.1" id="Layer_1" xmlns="http://www.w3.org/2000/svg" xmlns:xlink="http://www.w3.org/1999/xlink" x="0px" y="0px"
	 viewBox="0 0 26 26.1" style="enable-background:new 0 0 26 26.1;" xml:space="preserve">
<style type="text/css">
	.st0{clip-path:url(#SVGID_2_);}
	.st1{fill-rule:evenodd;clip-rule:evenodd;fill:#FFFFFF;}
</style>
<g>
	<defs>
		<rect id="SVGID_1_" width="26" height="26.1"/>
	</defs>
	<clipPath id="SVGID_2_">
		<use xlink:href="#SVGID_1_"  style="overflow:visible;"/>
	</clipPath>
	<g id="alarm" class="st0">
		<path id="Path_37" class="st1" d="M24.4,22.9h-8.2c0,1.8-1.5,3.3-3.3,3.3s-3.3-1.5-3.3-3.3H1.5c-0.7,0-1.3-0.5-1.5-1.1
			c-0.2-0.6,0-1.3,0.5-1.8c1.6-1.2,2.6-3.2,2.6-5.2V9.8C3.2,4.4,7.6,0,13,0c5.4,0,9.8,4.4,9.8,9.8v4.9c0,2.1,1,4,2.6,5.2
			c0.5,0.4,0.7,1.2,0.5,1.8C25.7,22.4,25.1,22.9,24.4,22.9z"/>
	</g>
</g>
</svg>
