<svg xmlns="http://www.w3.org/2000/svg" xmlns:xlink="http://www.w3.org/1999/xlink" width="24.464" height="25.751" viewBox="0 0 24.464 25.751">
  <defs>
    <clipPath id="clip-path">
      <rect width="24.464" height="25.751" fill="none"/>
    </clipPath>
  </defs>
  <g id="conf" clip-path="url(#clip-path)">
    <path id="Path_40" data-name="Path 40" d="M188.472,1354.794a9.078,9.078,0,0,1,3.863-2.092l1.287-3.7h3.219l1.287,3.7a11.245,11.245,0,0,1,3.863,2.092l3.862-.8,1.61,2.9-2.575,2.9a9.162,9.162,0,0,1,.161,2.092c0,.644-.161,1.448-.161,2.093l2.575,2.9-1.61,2.9-3.862-.8a9.073,9.073,0,0,1-3.863,2.093l-1.287,3.7h-3.219l-1.287-3.7a11.238,11.238,0,0,1-3.863-2.093l-3.862.8-1.61-2.9,2.575-2.9a9.2,9.2,0,0,1-.161-2.093c0-.644.161-1.448.161-2.092l-2.575-2.9,1.61-2.9Zm6.6,10.3a3.219,3.219,0,1,0-3.219-3.219A3.228,3.228,0,0,0,195.071,1365.095Z" transform="translate(-183 -1349)" fill="#d43045" fill-rule="evenodd"/>
  </g>
</svg>
