<svg xmlns="http://www.w3.org/2000/svg" xmlns:xlink="http://www.w3.org/1999/xlink" width="17.437" height="33.916" viewBox="0 0 17.437 33.916">
  <defs>
    <clipPath id="clip-path">
      <rect width="17.437" height="33.916" fill="none"/>
    </clipPath>
  </defs>
  <g id="lab" clip-path="url(#clip-path)">
    <path id="Path_41" data-name="Path 41" d="M536.081,851.916h-.363a6.365,6.365,0,0,1-6.364-6.365V824.875A3.539,3.539,0,0,1,530.539,818H540.9a3.539,3.539,0,0,1,1.185,6.875v21.039a6,6,0,0,1-6,6Zm0-1.656a4.346,4.346,0,0,0,4.345-4.346V824.364a4.72,4.72,0,0,0-.094-.941h.565a1.883,1.883,0,0,0,0-3.767H530.539a1.883,1.883,0,0,0,0,3.767h.565a4.72,4.72,0,0,0-.094.941v21.187a4.708,4.708,0,0,0,4.708,4.709h.363" transform="translate(-527 -818)" fill="#d43045"/>
    <path id="Path_42" data-name="Path 42" d="M539.385,862.49h-.42a5.24,5.24,0,0,1-5.459-4.974V842.147a11.6,11.6,0,0,1,4.97,1.414,15.565,15.565,0,0,0,5.246,1.637c.233.023.469.042.7.056V857.9A4.836,4.836,0,0,1,539.385,862.49Z" transform="translate(-529.915 -828.818)" fill="#d43045"/>
  </g>
</svg>
