<svg xmlns="http://www.w3.org/2000/svg" width="151" height="30.547" viewBox="0 0 151 30.547">
  <g id="Group_217" data-name="Group 217" transform="translate(-83.885 73.407)">
    <g id="Group_26" data-name="Group 26" transform="translate(83.885 -73.407)">
      <path id="Path_16" data-name="Path 16" d="M83.885-43.327V-72.859h21.354v3.489H87.79v9.04h16.342v3.459H87.79v10.054H105.93v3.489Z" transform="translate(-83.885 73.366)" fill="#fff"/>
      <path id="Path_17" data-name="Path 17" d="M113.492-43.327V-72.859H117.5l15.512,23.183V-72.859h3.751v29.532h-4.012L117.243-66.541v23.214Z" transform="translate(-86.096 73.366)" fill="#fff"/>
      <path id="Path_18" data-name="Path 18" d="M145.575-43.327V-72.859h3.9v26.043h14.544v3.489Z" transform="translate(-88.493 73.366)" fill="#fff"/>
      <path id="Path_19" data-name="Path 19" d="M167.041-43.327l11.345-29.532H182.6l12.084,29.532h-4.458l-3.444-8.947H174.436l-3.244,8.947Zm8.517-12.13h10.024l-3.09-8.179q-1.416-3.735-2.091-6.118a36.731,36.731,0,0,1-1.6,5.642Z" transform="translate(-90.096 73.366)" fill="#fff"/>
      <path id="Path_20" data-name="Path 20" d="M241.062-53.729l3.9,1q-2.521,9.87-12.237,9.87-7.148,0-10.508-4.49a17.85,17.85,0,0,1-3.359-11.007q0-7.487,4.058-11.268a13.949,13.949,0,0,1,9.87-3.782q9.177,0,11.668,8.609l-3.843.907q-1.97-6.164-7.9-6.164-5.242,0-7.532,3.336a14.409,14.409,0,0,0-2.291,8.348q0,6.41,2.721,9.285a8.985,8.985,0,0,0,6.81,2.874Q239.433-46.212,241.062-53.729Z" transform="translate(-93.967 73.407)" fill="#fff"/>
    </g>
    <g id="Group_27" data-name="Group 27" transform="translate(187.803 -67.345)">
      <path id="Path_21" data-name="Path 21" d="M213.206-49.438c-.22.012-.384.029-.547.029-2.636,0-5.272.008-7.908,0a8.608,8.608,0,0,1-8.454-7.249,8.767,8.767,0,0,1,6.142-9.883,8.5,8.5,0,0,1,10.65,6.977,10.551,10.551,0,0,1,.11,1.6c.011,2.653.006,5.306.006,7.959Z" transform="translate(-196.192 66.856)" fill="#cd2141"/>
    </g>
  </g>
</svg>
