<svg xmlns="http://www.w3.org/2000/svg" xmlns:xlink="http://www.w3.org/1999/xlink" width="13.041" height="14.904" viewBox="0 0 13.041 14.904">
  <defs>
    <clipPath id="clip-path">
      <rect width="13.041" height="14.904" fill="none"/>
    </clipPath>
  </defs>
  <g id="pass-ico" clip-path="url(#clip-path)">
    <path id="Path_7" data-name="Path 7" d="M132.178,743.681h-9.315A1.868,1.868,0,0,1,121,741.818v-7.452a1.869,1.869,0,0,1,1.863-1.863h.932a3.726,3.726,0,0,1,7.452,0h.931a1.869,1.869,0,0,1,1.863,1.863v7.452A1.868,1.868,0,0,1,132.178,743.681Zm-4.657-13.041a1.868,1.868,0,0,0-1.863,1.863h3.726A1.868,1.868,0,0,0,127.521,730.64Zm0,5.589a1.863,1.863,0,1,1-1.863,1.863A1.868,1.868,0,0,1,127.521,736.229Z" transform="translate(-121 -728.777)" fill="#d43045" fill-rule="evenodd"/>
  </g>
</svg>
